<svg width="358" height="15" viewBox="0 0 358 15" fill="none" xmlns="http://www.w3.org/2000/svg">
<path d="M328.615 4.98928C320.825 4.3551 313.031 3.83941 305.239 3.27106C302.669 3.07786 300.082 3.016 297.51 2.88863C291.926 2.61019 286.341 2.34492 280.757 2.06649C277.652 1.9132 274.534 1.74642 271.429 1.60629C270.522 1.57144 269.629 1.53691 268.722 1.51522C266.695 1.46675 264.668 1.44461 262.64 1.40931C253.426 1.18896 244.197 0.994622 234.983 0.774272C232.782 0.721656 230.594 0.722021 228.393 0.695736C222.951 0.631459 217.521 0.580666 212.092 0.516707C205.956 0.449013 199.835 0.328976 193.697 0.340276C183.77 0.340005 173.856 0.353219 163.929 0.352949C158.178 0.360331 152.442 0.302204 146.689 0.388579C136.785 0.546933 126.894 0.692441 116.991 0.837629C111.585 0.91913 106.167 0.960815 100.759 1.13447C90.517 1.45601 80.2757 1.76438 70.034 2.08591C64.5594 2.25798 59.0866 2.35105 53.6215 2.68142C43.413 3.29355 33.2177 3.90601 23.0092 4.51814C20.8045 4.64984 18.5998 4.78154 16.3951 4.91325C11.9856 5.17665 7.59785 5.65134 3.19893 6.03355C2.91794 6.06635 2.65029 6.09947 2.36963 6.11911C1.84609 6.25149 1.37306 6.50364 0.977212 6.8762C0.390262 7.4286 0.0379924 8.21057 0.0187878 9.01367C-0.000416821 9.81677 0.314073 10.6147 0.873633 11.2077C1.38143 11.7336 2.27689 12.2292 3.05253 12.1555C8.36076 11.6897 13.6563 11.1972 18.9744 10.8765C23.9048 10.586 28.8223 10.2821 33.7527 9.9916C39.1242 9.67216 44.4956 9.35272 49.867 9.03329C52.0318 8.90063 54.1977 8.71531 56.3742 8.6488C64.7464 8.38794 73.1182 8.14025 81.4901 7.89256C86.7111 7.72761 91.9318 7.57581 97.1527 7.41085C99.3025 7.34371 101.466 7.25054 103.629 7.21004C111.918 7.07893 120.22 6.97447 128.508 6.86969C133.54 6.80559 138.558 6.72801 143.59 6.66391C145.285 6.63858 146.967 6.59977 148.662 6.60077C157.615 6.60409 166.568 6.62058 175.52 6.63707C180.524 6.63816 185.514 6.6521 190.517 6.65319C192.292 6.65611 194.08 6.63301 195.854 6.66226L223.544 7.04778C229.307 7.11972 235.056 7.20449 240.816 7.35542C250.617 7.61613 260.418 7.86367 270.205 8.12407C272.139 8.17031 274.071 8.29554 276.003 8.4076L292.22 9.26965C296.271 9.48508 300.322 9.70051 304.387 9.91626C307.265 10.0641 310.127 10.3433 313.004 10.5702C321.461 11.2203 329.917 11.8968 338.36 12.6124C340.504 12.7954 342.647 13.0047 344.79 13.2141C347.093 13.4272 349.396 13.6535 351.684 13.9585C352.042 14.0198 352.388 14.0939 352.746 14.1815C353.648 14.3875 354.516 14.3556 355.341 13.9143C356.098 13.4976 356.675 12.7869 356.935 11.9632C357.457 10.2369 356.434 8.35501 354.686 7.82579C353.149 7.3675 351.553 7.15808 349.97 6.96215C348.879 6.83068 347.801 6.68636 346.71 6.55488C344.622 6.29417 342.517 6.13846 340.428 5.93041C336.501 5.54669 332.557 5.28115 328.616 4.96295L328.615 4.98928Z" fill="#F45B49"/>
</svg>
