<svg width="269" height="13" viewBox="0 0 269 13" fill="none" xmlns="http://www.w3.org/2000/svg">
<path d="M247.19 1.55C241.34 1.21 235.49 0.96 229.64 0.67C227.71 0.57 225.77 0.57 223.84 0.52C219.65 0.41 215.46 0.31 211.27 0.2C208.94 0.14 206.6 0.07 204.27 0.02C203.59 0.01 202.92 0 202.24 0C200.72 0 199.2 0.02 197.68 0.03C190.77 0.03 183.85 0.05 176.94 0.05C175.29 0.05 173.65 0.09 172 0.11C167.92 0.16 163.85 0.22 159.78 0.27C155.18 0.33 150.59 0.35 145.99 0.47C138.55 0.65 131.12 0.84 123.68 1.02C119.37 1.13 115.07 1.19 110.76 1.36C103.34 1.66 95.9302 1.95 88.5102 2.24C84.4602 2.4 80.4002 2.53 76.3502 2.76C68.6802 3.19 61.0102 3.61 53.3402 4.04C49.2402 4.27 45.1402 4.44 41.0502 4.79C33.4102 5.44 25.7802 6.09 18.1402 6.74C16.4902 6.88 14.8402 7.02 13.1902 7.16C9.89023 7.44 6.61023 7.88 3.32023 8.25C3.11023 8.28 2.91023 8.31 2.70023 8.33C2.31023 8.44 1.96023 8.64 1.67023 8.93C1.24023 9.36 0.990234 9.96 0.990234 10.57C0.990234 11.18 1.24023 11.78 1.67023 12.22C2.06023 12.61 2.74023 12.97 3.32023 12.9C7.29023 12.45 11.2502 11.98 15.2302 11.64C18.9202 11.33 22.6002 11.01 26.2902 10.7C30.3102 10.36 34.3302 10.02 38.3502 9.68C39.9702 9.54 41.5902 9.36 43.2202 9.27C49.4902 8.92 55.7602 8.58 62.0302 8.24C65.9402 8.02 69.8502 7.81 73.7602 7.59C75.3702 7.5 76.9902 7.39 78.6102 7.32C84.8202 7.07 91.0402 6.84 97.2502 6.61C101.02 6.47 104.78 6.32 108.55 6.18C109.82 6.13 111.08 6.07 112.35 6.04C119.06 5.88 125.77 5.73 132.48 5.58C136.23 5.49 139.97 5.41 143.72 5.32C145.05 5.29 146.39 5.24 147.72 5.23L168.48 5.02C172.8 4.97 177.11 4.93 181.43 4.94C188.78 4.96 196.13 4.97 203.47 4.99C204.92 4.99 206.37 5.05 207.82 5.1L219.99 5.46C223.03 5.55 226.07 5.64 229.12 5.73C231.28 5.79 233.43 5.95 235.59 6.07C241.94 6.41 248.29 6.77 254.63 7.16C256.24 7.26 257.85 7.38 259.46 7.5C261.19 7.62 262.92 7.75 264.64 7.94C264.91 7.98 265.17 8.03 265.44 8.09C266.12 8.23 266.77 8.19 267.38 7.84C267.94 7.51 268.36 6.96 268.54 6.33C268.9 5.01 268.1 3.6 266.78 3.23C265.62 2.91 264.42 2.78 263.23 2.66C262.41 2.58 261.6 2.49 260.78 2.41C259.21 2.25 257.63 2.17 256.06 2.05C253.11 1.83 250.15 1.7 247.19 1.53V1.55Z" fill="#8873EF"/>
</svg>
