<svg width="103" height="21" viewBox="0 0 103 21" fill="none" xmlns="http://www.w3.org/2000/svg">
<path d="M0.984375 6.27344C0.984375 4.83594 1.65625 3.61719 3 2.61719C4.29688 1.66406 5.84375 1.1875 7.64062 1.1875H10.0312C11.4844 1.1875 12.8906 1.52344 14.25 2.19531C14.8125 2.49219 15.2656 2.80469 15.6094 3.13281L12.4688 5.54688C11.9531 4.82813 11.25 4.41406 10.3594 4.30469C10.25 4.28906 10.1406 4.28125 10.0312 4.28125H7.64062C6.46875 4.28125 5.58594 4.60938 4.99219 5.26562C4.72656 5.59375 4.59375 5.92969 4.59375 6.27344C4.59375 6.88281 5.24219 7.40625 6.53906 7.84375C6.94531 7.98438 7.63281 8.17969 8.60156 8.42969C10.9453 9.03906 12.5859 9.63281 13.5234 10.2109C15.0547 11.1484 15.8281 12.3828 15.8438 13.9141C15.8438 15.3359 15.1562 16.5469 13.7812 17.5469C12.4219 18.5156 10.8125 19 8.95312 19H6.5625C5.04688 19 3.57812 18.6641 2.15625 17.9922C1.5625 17.6953 1.09375 17.3828 0.75 17.0547L3.84375 14.6641C4.39062 15.3516 5.15625 15.7578 6.14062 15.8828C6.29688 15.8984 6.4375 15.9062 6.5625 15.9062H8.95312C10.2188 15.9062 11.1719 15.5703 11.8125 14.8984C12.0938 14.5859 12.2344 14.2578 12.2344 13.9141C12.2344 13.2266 11.5859 12.6562 10.2891 12.2031C10.1016 12.125 8.96875 11.8047 6.89062 11.2422C4.5 10.6016 2.875 9.82812 2.01562 8.92188C1.32812 8.17188 0.984375 7.28906 0.984375 6.27344ZM17.6953 18.0156C17.6953 17.2031 18.0391 16.5781 18.7266 16.1406C19.1016 15.9062 19.5 15.7891 19.9219 15.7891C20.7344 15.7891 21.3594 16.1328 21.7969 16.8203C22.0312 17.1953 22.1484 17.5938 22.1484 18.0156C22.1484 18.8281 21.8047 19.4531 21.1172 19.8906C20.7422 20.125 20.3438 20.2422 19.9219 20.2422C19.1094 20.2422 18.4844 19.8984 18.0469 19.2109C17.8125 18.8359 17.6953 18.4375 17.6953 18.0156ZM36.2812 12.2266V7.96094C36.2812 6.72656 35.8359 5.74219 34.9453 5.00781C34.3672 4.52344 33.7188 4.28125 33 4.28125H28.3594V15.9062H33C34.0781 15.9062 34.9453 15.4219 35.6016 14.4531C36.0547 13.7812 36.2812 13.0391 36.2812 12.2266ZM24.7734 4.32812C24.7734 3.26562 25.2266 2.42187 26.1328 1.79688C26.7422 1.39062 27.4141 1.1875 28.1484 1.1875H33C34.9375 1.1875 36.5859 1.875 37.9453 3.25C39.2422 4.5625 39.8906 6.13281 39.8906 7.96094V12.2266C39.8906 14.1328 39.2031 15.75 37.8281 17.0781C36.4688 18.3594 34.8594 19 33 19H24.7734V4.32812ZM54.0703 16.6328H46.2656L48.1875 13.5391H52.9922L49.9453 4.79688L44.9766 19H41.1328L46.3594 4.09375C47.125 2.01563 48.3203 0.96875 49.9453 0.953125C51.5703 0.96875 52.7578 2.01563 53.5078 4.09375L58.7578 19H54.9141L54.0703 16.6328ZM65.9531 19H62.3438V4.32812C62.3438 3.28125 62.7969 2.44531 63.7031 1.82031C64.3125 1.39844 64.9922 1.1875 65.7422 1.1875H71.0625V4.28125H65.9531V19ZM63.0234 1.1875L61.1016 4.28125H57.5625V1.1875H63.0234ZM80.9766 19H77.3672V4.32812C77.3672 3.28125 77.8203 2.44531 78.7266 1.82031C79.3359 1.39844 80.0156 1.1875 80.7656 1.1875H86.0859V4.28125H80.9766V19ZM78.0469 1.1875L76.125 4.28125H72.5859V1.1875H78.0469ZM97.5234 16.6328H89.7188L91.6406 13.5391H96.4453L93.3984 4.79688L88.4297 19H84.5859L89.8125 4.09375C90.5781 2.01563 91.7734 0.96875 93.3984 0.953125C95.0234 0.96875 96.2109 2.01563 96.9609 4.09375L102.211 19H98.3672L97.5234 16.6328Z" fill="#0D0E10"/>
</svg>
