<svg width="11" height="24" viewBox="0 0 11 24" fill="none" xmlns="http://www.w3.org/2000/svg">
<path d="M8.55556 0C8.2314 0 7.92053 0.126428 7.69131 0.351472C7.4621 0.576515 7.33333 0.88174 7.33333 1.2V4.8H2.44444C1.08778 4.8 0 5.868 0 7.2V21.6C0 22.932 1.08778 24 2.44444 24H8.55556C9.91222 24 11 22.932 11 21.6V7.2C11 6.312 10.5111 5.544 9.77778 5.136V1.2C9.77778 0.88174 9.64901 0.576515 9.4198 0.351472C9.19059 0.126428 8.87971 0 8.55556 0ZM2.44444 7.2H8.55556V13.2H2.44444V7.2ZM2.44444 15.6H3.66667V16.8H2.44444V15.6ZM4.88889 15.6H6.11111V16.8H4.88889V15.6ZM7.33333 15.6H8.55556V16.8H7.33333V15.6ZM2.44444 18H3.66667V19.2H2.44444V18ZM4.88889 18H6.11111V19.2H4.88889V18ZM7.33333 18H8.55556V19.2H7.33333V18ZM2.44444 20.4H3.66667V21.6H2.44444V20.4ZM4.88889 20.4H6.11111V21.6H4.88889V20.4ZM7.33333 20.4H8.55556V21.6H7.33333V20.4Z" fill="white"/>
</svg>
